<?xml version="1.0" encoding="UTF-8" standalone="no"?>
<svg
   xmlns:dc="http://purl.org/dc/elements/1.1/"
   xmlns:cc="http://creativecommons.org/ns#"
   xmlns:rdf="http://www.w3.org/1999/02/22-rdf-syntax-ns#"
   xmlns:svg="http://www.w3.org/2000/svg"
   xmlns="http://www.w3.org/2000/svg"
   xmlns:sodipodi="http://sodipodi.sourceforge.net/DTD/sodipodi-0.dtd"
   xmlns:inkscape="http://www.inkscape.org/namespaces/inkscape"
   width="432"
   height="432"
   viewBox="0 0 432 432"
   fill="none"
   version="1.1"
   id="svg885"
   sodipodi:docname="inkscape for export.svg"
   inkscape:version="0.92.5 (2060ec1f9f, 2020-04-08)">
  <metadata
     id="metadata891">
    <rdf:RDF>
      <cc:Work
         rdf:about="">
        <dc:format>image/svg+xml</dc:format>
        <dc:type
           rdf:resource="http://purl.org/dc/dcmitype/StillImage" />
        <dc:title></dc:title>
      </cc:Work>
    </rdf:RDF>
  </metadata>
  <defs
     id="defs889">
    <filter
       inkscape:collect="always"
       style="color-interpolation-filters:sRGB"
       id="filter1452"
       x="-0.051966629"
       width="1.1039333"
       y="-0.044595976"
       height="1.089192">
      <feGaussianBlur
         inkscape:collect="always"
         stdDeviation="3.41031"
         id="feGaussianBlur1454" />
    </filter>
  </defs>
  <sodipodi:namedview
     pagecolor="#ffffff"
     bordercolor="#666666"
     borderopacity="1"
     objecttolerance="10"
     gridtolerance="10"
     guidetolerance="10"
     inkscape:pageopacity="0"
     inkscape:pageshadow="2"
     inkscape:window-width="1920"
     inkscape:window-height="1053"
     id="namedview887"
     showgrid="false"
     inkscape:zoom="3.0903185"
     inkscape:cx="185.17162"
     inkscape:cy="216.28138"
     inkscape:window-x="-9"
     inkscape:window-y="-9"
     inkscape:window-maximized="1"
     inkscape:current-layer="svg885" />
  <path
     id="path1450"
     d="m 193.74974,136.87524 v -13.125 h 52.5 v 13.125 z m 19.688,97.781 h 13.124 v -50.312 h -13.124 z m 6.562,72.625 c -10.792,0 -20.964,-2.078 -30.516,-6.234 -9.552,-4.156 -17.901,-9.807 -25.046,-16.953 -7.146,-7.146 -12.797,-15.495 -16.954,-25.047 -4.156,-9.552 -6.234,-19.724 -6.234,-30.516 0,-10.791 2.078,-20.963 6.234,-30.515 4.157,-9.552 9.808,-17.901 16.954,-25.047 7.145,-7.146 15.494,-12.797 25.046,-16.953 9.552,-4.157 19.724,-6.235 30.516,-6.235 9.771,0 18.922,1.604 27.453,4.813 8.531,3.208 16.151,7.729 22.859,13.562 l 11.157,-11.156 9.406,9.406 -11.156,11.156 c 5.25,5.834 9.734,12.907 13.453,21.219 3.719,8.313 5.578,18.229 5.578,29.75 0,10.792 -2.078,20.964 -6.234,30.516 -4.157,9.552 -9.808,17.901 -16.954,25.047 -7.145,7.146 -15.494,12.797 -25.046,16.953 -9.552,4.156 -19.724,6.234 -30.516,6.234 z"
     style="opacity:0.2;fill:#000000;fill-opacity:1;filter:url(#filter1452)"
     inkscape:connector-curvature="0" />
  <path
     d="M 189.75,132.875 V 119.75 h 52.5 v 13.125 z m 19.688,97.781 h 13.124 V 180.344 H 209.438 Z M 216,303.281 c -10.792,0 -20.964,-2.078 -30.516,-6.234 -9.552,-4.156 -17.901,-9.807 -25.046,-16.953 -7.146,-7.146 -12.797,-15.495 -16.954,-25.047 -4.156,-9.552 -6.234,-19.724 -6.234,-30.516 0,-10.791 2.078,-20.963 6.234,-30.515 4.157,-9.552 9.808,-17.901 16.954,-25.047 7.145,-7.146 15.494,-12.797 25.046,-16.953 9.552,-4.157 19.724,-6.235 30.516,-6.235 9.771,0 18.922,1.604 27.453,4.813 8.531,3.208 16.151,7.729 22.859,13.562 L 277.469,153 l 9.406,9.406 -11.156,11.156 c 5.25,5.834 9.734,12.907 13.453,21.219 3.719,8.313 5.578,18.229 5.578,29.75 0,10.792 -2.078,20.964 -6.234,30.516 -4.157,9.552 -9.808,17.901 -16.954,25.047 -7.145,7.146 -15.494,12.797 -25.046,16.953 -9.552,4.156 -19.724,6.234 -30.516,6.234 z"
     id="path883"
     inkscape:connector-curvature="0"
     style="display:inline;fill:#fef7ff" />
</svg>
