<?xml version="1.0" encoding="UTF-8" standalone="no"?>
<!-- Created with Inkscape (http://www.inkscape.org/) -->

<svg
   xmlns:dc="http://purl.org/dc/elements/1.1/"
   xmlns:cc="http://creativecommons.org/ns#"
   xmlns:rdf="http://www.w3.org/1999/02/22-rdf-syntax-ns#"
   xmlns:svg="http://www.w3.org/2000/svg"
   xmlns="http://www.w3.org/2000/svg"
   xmlns:xlink="http://www.w3.org/1999/xlink"
   xmlns:sodipodi="http://sodipodi.sourceforge.net/DTD/sodipodi-0.dtd"
   xmlns:inkscape="http://www.inkscape.org/namespaces/inkscape"
   width="416"
   height="416"
   id="svg2"
   sodipodi:version="0.32"
   inkscape:version="0.47 r22583"
   version="1.0"
   sodipodi:docname="Launcher Icon.svg"
   inkscape:output_extension="org.inkscape.output.svg.inkscape">
  <defs
     id="defs4">
    <inkscape:perspective
       sodipodi:type="inkscape:persp3d"
       inkscape:vp_x="0 : 208 : 1"
       inkscape:vp_y="0 : 1000 : 0"
       inkscape:vp_z="410 : 208 : 1"
       inkscape:persp3d-origin="205 : 138.66667 : 1"
       id="perspective3022" />
    <linearGradient
       id="linearGradient3677">
      <stop
         style="stop-color: rgb(0, 0, 0); stop-opacity: 1;"
         offset="0"
         id="stop3679" />
      <stop
         id="stop3685"
         offset="0.81875002"
         style="stop-color: rgb(0, 0, 0); stop-opacity: 1;" />
      <stop
         style="stop-color: rgb(0, 0, 0); stop-opacity: 0;"
         offset="1"
         id="stop3681" />
    </linearGradient>
    <linearGradient
       id="linearGradient3593">
      <stop
         style="stop-color: rgb(0, 0, 0); stop-opacity: 1;"
         offset="0"
         id="stop3595" />
      <stop
         style="stop-color: rgb(97, 97, 97); stop-opacity: 1;"
         offset="1"
         id="stop3597" />
    </linearGradient>
    <linearGradient
       id="linearGradient3585">
      <stop
         style="stop-color: rgb(208, 208, 208); stop-opacity: 1;"
         offset="0"
         id="stop3587" />
      <stop
         style="stop-color: rgb(255, 255, 255); stop-opacity: 1;"
         offset="1"
         id="stop3589" />
    </linearGradient>
    <linearGradient
       id="linearGradient3377">
      <stop
         style="stop-color: rgb(60, 161, 246); stop-opacity: 1;"
         offset="0"
         id="stop3379" />
      <stop
         style="stop-color: rgb(32, 125, 204); stop-opacity: 1;"
         offset="1"
         id="stop3381" />
    </linearGradient>
    <linearGradient
       id="linearGradient3335">
      <stop
         style="stop-color: rgb(245, 245, 245); stop-opacity: 1;"
         offset="0"
         id="stop3337" />
      <stop
         style="stop-color: rgb(229, 229, 229); stop-opacity: 1;"
         offset="1"
         id="stop3339" />
    </linearGradient>
    <linearGradient
       id="linearGradient3322">
      <stop
         id="stop3333"
         offset="0"
         style="stop-color: rgb(247, 247, 247); stop-opacity: 1;" />
      <stop
         style="stop-color: rgb(194, 194, 194); stop-opacity: 1;"
         offset="1"
         id="stop3326" />
    </linearGradient>
    <linearGradient
       id="linearGradient3232">
      <stop
         style="stop-color: rgb(255, 255, 255); stop-opacity: 1;"
         offset="0"
         id="stop3234" />
      <stop
         id="stop3240"
         offset="0.5"
         style="stop-color: rgb(255, 255, 255); stop-opacity: 0.564706;" />
      <stop
         style="stop-color: rgb(255, 255, 255); stop-opacity: 0;"
         offset="1"
         id="stop3236" />
    </linearGradient>
    <linearGradient
       id="linearGradient3222">
      <stop
         id="stop3224"
         offset="0"
         style="stop-color: rgb(48, 169, 236); stop-opacity: 1;" />
      <stop
         id="stop3226"
         offset="1"
         style="stop-color: rgb(10, 76, 113); stop-opacity: 0;" />
    </linearGradient>
    <linearGradient
       id="linearGradient3210">
      <stop
         style="stop-color: rgb(38, 96, 128); stop-opacity: 1;"
         offset="0"
         id="stop3212" />
      <stop
         style="stop-color: rgb(17, 45, 60); stop-opacity: 1;"
         offset="1"
         id="stop3214" />
    </linearGradient>
    <linearGradient
       id="linearGradient3194">
      <stop
         style="stop-color: rgb(86, 86, 86); stop-opacity: 1;"
         offset="0"
         id="stop3196" />
      <stop
         style="stop-color: rgb(255, 255, 255); stop-opacity: 1;"
         offset="1"
         id="stop3198" />
    </linearGradient>
    <linearGradient
       id="linearGradient3184">
      <stop
         style="stop-color: rgb(155, 155, 155); stop-opacity: 1;"
         offset="0"
         id="stop3186" />
      <stop
         style="stop-color: rgb(69, 69, 69); stop-opacity: 1;"
         offset="1"
         id="stop3188" />
    </linearGradient>
    <linearGradient
       id="linearGradient3176">
      <stop
         style="stop-color: rgb(247, 247, 247); stop-opacity: 1;"
         offset="0"
         id="stop3178" />
      <stop
         style="stop-color: rgb(225, 225, 225); stop-opacity: 1;"
         offset="1"
         id="stop3180" />
    </linearGradient>
    <linearGradient
       inkscape:collect="always"
       xlink:href="#linearGradient3176"
       id="linearGradient3182"
       x1="80.242935"
       y1="392.19894"
       x2="208.64937"
       y2="254.95482"
       gradientUnits="userSpaceOnUse" />
    <radialGradient
       inkscape:collect="always"
       xlink:href="#linearGradient3184"
       id="radialGradient3192"
       cx="293.05493"
       cy="160.01251"
       fx="293.05493"
       fy="160.01251"
       r="189.28572"
       gradientTransform="matrix(2.07507,0.556014,-0.639911,2.38818,-187.165,-314.915)"
       gradientUnits="userSpaceOnUse" />
    <linearGradient
       inkscape:collect="always"
       xlink:href="#linearGradient3194"
       id="linearGradient3200"
       x1="296.89822"
       y1="68.567726"
       x2="188.40916"
       y2="391.42859"
       gradientUnits="userSpaceOnUse" />
    <linearGradient
       inkscape:collect="always"
       xlink:href="#linearGradient3194"
       id="linearGradient3208"
       x1="250.58675"
       y1="299.48981"
       x2="331.7092"
       y2="35.84182"
       gradientUnits="userSpaceOnUse" />
    <radialGradient
       inkscape:collect="always"
       xlink:href="#linearGradient3210"
       id="radialGradient3216"
       cx="197.85715"
       cy="202.14285"
       fx="197.85715"
       fy="202.14285"
       r="189.28572"
       gradientUnits="userSpaceOnUse" />
    <radialGradient
       inkscape:collect="always"
       xlink:href="#linearGradient3222"
       id="radialGradient3220"
       gradientUnits="userSpaceOnUse"
       cx="197.85715"
       cy="630.49414"
       fx="197.85715"
       fy="630.49414"
       r="189.28572"
       gradientTransform="matrix(1.07098,0,0,0.668188,-14.0449,-29.8599)" />
    <radialGradient
       inkscape:collect="always"
       xlink:href="#linearGradient3232"
       id="radialGradient3238"
       cx="295.90915"
       cy="-341.75525"
       fx="295.90915"
       fy="-341.75525"
       r="189.28572"
       gradientUnits="userSpaceOnUse"
       gradientTransform="matrix(0.961684,0.497223,-0.369458,0.714572,-93.6256,109.933)" />
    <linearGradient
       inkscape:collect="always"
       xlink:href="#linearGradient3377"
       id="linearGradient3341"
       x1="222.84375"
       y1="231.44855"
       x2="152.13307"
       y2="77.905357"
       gradientUnits="userSpaceOnUse" />
    <linearGradient
       inkscape:collect="always"
       xlink:href="#linearGradient3335"
       id="linearGradient3349"
       x1="224.82585"
       y1="185.64465"
       x2="156.40765"
       y2="249.28427"
       gradientUnits="userSpaceOnUse" />
    <linearGradient
       inkscape:collect="always"
       xlink:href="#linearGradient3335"
       id="linearGradient3357"
       x1="171.59375"
       y1="204.66878"
       x2="310.03601"
       y2="237.5"
       gradientUnits="userSpaceOnUse" />
    <radialGradient
       inkscape:collect="always"
       xlink:href="#linearGradient3322"
       id="radialGradient3394"
       cx="197.85715"
       cy="202.14285"
       fx="197.85715"
       fy="202.14285"
       r="189.28572"
       gradientUnits="userSpaceOnUse" />
    <linearGradient
       inkscape:collect="always"
       xlink:href="#linearGradient3585"
       id="linearGradient3591"
       x1="72.285706"
       y1="350.66031"
       x2="286.38196"
       y2="215.29987"
       gradientUnits="userSpaceOnUse" />
    <linearGradient
       inkscape:collect="always"
       xlink:href="#linearGradient3593"
       id="linearGradient3599"
       x1="84.34774"
       y1="137.36035"
       x2="293.95438"
       y2="62.103973"
       gradientUnits="userSpaceOnUse" />
    <linearGradient
       inkscape:collect="always"
       xlink:href="#linearGradient3194"
       id="linearGradient3621"
       gradientUnits="userSpaceOnUse"
       x1="250.58675"
       y1="299.48981"
       x2="331.7092"
       y2="35.84182" />
    <radialGradient
       inkscape:collect="always"
       xlink:href="#linearGradient3184"
       id="radialGradient3623"
       gradientUnits="userSpaceOnUse"
       gradientTransform="matrix(2.07507,0.556014,-0.639911,2.38818,-187.165,-314.915)"
       cx="293.05493"
       cy="160.01251"
       fx="293.05493"
       fy="160.01251"
       r="189.28572" />
    <linearGradient
       inkscape:collect="always"
       xlink:href="#linearGradient3176"
       id="linearGradient3625"
       gradientUnits="userSpaceOnUse"
       x1="80.242935"
       y1="392.19894"
       x2="208.64937"
       y2="254.95482" />
    <linearGradient
       inkscape:collect="always"
       xlink:href="#linearGradient3194"
       id="linearGradient3627"
       gradientUnits="userSpaceOnUse"
       x1="296.89822"
       y1="68.567726"
       x2="188.40916"
       y2="391.42859" />
    <radialGradient
       inkscape:collect="always"
       xlink:href="#linearGradient3210"
       id="radialGradient3629"
       gradientUnits="userSpaceOnUse"
       cx="197.85715"
       cy="202.14285"
       fx="197.85715"
       fy="202.14285"
       r="189.28572" />
    <radialGradient
       inkscape:collect="always"
       xlink:href="#linearGradient3222"
       id="radialGradient3631"
       gradientUnits="userSpaceOnUse"
       gradientTransform="matrix(1.07098,0,0,0.668188,-14.0449,-29.8599)"
       cx="197.85715"
       cy="630.49414"
       fx="197.85715"
       fy="630.49414"
       r="189.28572" />
    <radialGradient
       inkscape:collect="always"
       xlink:href="#linearGradient3232"
       id="radialGradient3633"
       gradientUnits="userSpaceOnUse"
       gradientTransform="matrix(0.961684,0.497223,-0.369458,0.714572,-93.6256,109.933)"
       cx="295.90915"
       cy="-341.75525"
       fx="295.90915"
       fy="-341.75525"
       r="189.28572" />
    <linearGradient
       inkscape:collect="always"
       xlink:href="#linearGradient3377"
       id="linearGradient3635"
       gradientUnits="userSpaceOnUse"
       x1="222.84375"
       y1="231.44855"
       x2="152.13307"
       y2="77.905357" />
    <linearGradient
       inkscape:collect="always"
       xlink:href="#linearGradient3335"
       id="linearGradient3637"
       gradientUnits="userSpaceOnUse"
       x1="171.59375"
       y1="204.66878"
       x2="310.03601"
       y2="237.5" />
    <linearGradient
       inkscape:collect="always"
       xlink:href="#linearGradient3335"
       id="linearGradient3639"
       gradientUnits="userSpaceOnUse"
       x1="224.82585"
       y1="185.64465"
       x2="156.40765"
       y2="249.28427" />
    <radialGradient
       inkscape:collect="always"
       xlink:href="#linearGradient3322"
       id="radialGradient3641"
       gradientUnits="userSpaceOnUse"
       cx="197.85715"
       cy="202.14285"
       fx="197.85715"
       fy="202.14285"
       r="189.28572" />
    <linearGradient
       inkscape:collect="always"
       xlink:href="#linearGradient3593"
       id="linearGradient3643"
       gradientUnits="userSpaceOnUse"
       x1="84.34774"
       y1="137.36035"
       x2="293.95438"
       y2="62.103973" />
    <linearGradient
       inkscape:collect="always"
       xlink:href="#linearGradient3585"
       id="linearGradient3645"
       gradientUnits="userSpaceOnUse"
       x1="72.285706"
       y1="350.66031"
       x2="286.38196"
       y2="215.29987" />
    <linearGradient
       inkscape:collect="always"
       xlink:href="#linearGradient3585"
       id="linearGradient3648"
       gradientUnits="userSpaceOnUse"
       x1="72.285706"
       y1="350.66031"
       x2="286.38196"
       y2="215.29987"
       gradientTransform="translate(15,13)" />
    <linearGradient
       inkscape:collect="always"
       xlink:href="#linearGradient3593"
       id="linearGradient3651"
       gradientUnits="userSpaceOnUse"
       x1="84.34774"
       y1="137.36035"
       x2="293.95438"
       y2="62.103973"
       gradientTransform="translate(15,13)" />
    <linearGradient
       inkscape:collect="always"
       xlink:href="#linearGradient3335"
       id="linearGradient3656"
       gradientUnits="userSpaceOnUse"
       x1="224.82585"
       y1="185.64465"
       x2="156.40765"
       y2="249.28427"
       gradientTransform="translate(15,13)" />
    <linearGradient
       inkscape:collect="always"
       xlink:href="#linearGradient3335"
       id="linearGradient3660"
       gradientUnits="userSpaceOnUse"
       x1="171.59375"
       y1="204.66878"
       x2="310.03601"
       y2="237.5"
       gradientTransform="translate(15,13)" />
    <linearGradient
       inkscape:collect="always"
       xlink:href="#linearGradient3377"
       id="linearGradient3664"
       gradientUnits="userSpaceOnUse"
       x1="222.84375"
       y1="231.44855"
       x2="152.13307"
       y2="77.905357"
       gradientTransform="translate(15,13)" />
    <radialGradient
       inkscape:collect="always"
       xlink:href="#linearGradient3677"
       id="radialGradient3683"
       cx="197.85715"
       cy="202.14285"
       fx="197.85715"
       fy="202.14285"
       r="189.28572"
       gradientUnits="userSpaceOnUse"
       gradientTransform="matrix(1.00038,0,0,1.00038,-0.0745589,-0.0761747)" />
    <radialGradient
       inkscape:collect="always"
       xlink:href="#linearGradient3322"
       id="radialGradient3687"
       gradientUnits="userSpaceOnUse"
       cx="197.85715"
       cy="202.14285"
       fx="197.85715"
       fy="202.14285"
       r="189.28572" />
    <radialGradient
       inkscape:collect="always"
       xlink:href="#linearGradient3232"
       id="radialGradient3689"
       gradientUnits="userSpaceOnUse"
       gradientTransform="matrix(0.961684,0.497223,-0.369458,0.714572,-93.6256,109.933)"
       cx="295.90915"
       cy="-341.75525"
       fx="295.90915"
       fy="-341.75525"
       r="189.28572" />
    <radialGradient
       inkscape:collect="always"
       xlink:href="#linearGradient3222"
       id="radialGradient3691"
       gradientUnits="userSpaceOnUse"
       gradientTransform="matrix(1.07098,0,0,0.668188,-14.0449,-29.8599)"
       cx="197.85715"
       cy="630.49414"
       fx="197.85715"
       fy="630.49414"
       r="189.28572" />
    <radialGradient
       inkscape:collect="always"
       xlink:href="#linearGradient3210"
       id="radialGradient3693"
       gradientUnits="userSpaceOnUse"
       cx="197.85715"
       cy="202.14285"
       fx="197.85715"
       fy="202.14285"
       r="189.28572" />
    <linearGradient
       inkscape:collect="always"
       xlink:href="#linearGradient3194"
       id="linearGradient3695"
       gradientUnits="userSpaceOnUse"
       x1="296.89822"
       y1="68.567726"
       x2="188.40916"
       y2="391.42859" />
    <linearGradient
       inkscape:collect="always"
       xlink:href="#linearGradient3176"
       id="linearGradient3697"
       gradientUnits="userSpaceOnUse"
       x1="80.242935"
       y1="392.19894"
       x2="208.64937"
       y2="254.95482" />
    <radialGradient
       inkscape:collect="always"
       xlink:href="#linearGradient3184"
       id="radialGradient3699"
       gradientUnits="userSpaceOnUse"
       gradientTransform="matrix(2.07507,0.556014,-0.639911,2.38818,-187.165,-314.915)"
       cx="293.05493"
       cy="160.01251"
       fx="293.05493"
       fy="160.01251"
       r="189.28572" />
    <linearGradient
       inkscape:collect="always"
       xlink:href="#linearGradient3194"
       id="linearGradient3701"
       gradientUnits="userSpaceOnUse"
       x1="250.58675"
       y1="299.48981"
       x2="331.7092"
       y2="35.84182" />
    <radialGradient
       inkscape:collect="always"
       xlink:href="#linearGradient3677"
       id="radialGradient3045"
       gradientUnits="userSpaceOnUse"
       gradientTransform="matrix(1.00038,0,0,1.00038,-0.0745589,-0.0761747)"
       cx="197.85715"
       cy="202.14285"
       fx="197.85715"
       fy="202.14285"
       r="189.28572" />
    <linearGradient
       inkscape:collect="always"
       xlink:href="#linearGradient3194"
       id="linearGradient3047"
       gradientUnits="userSpaceOnUse"
       x1="250.58675"
       y1="299.48981"
       x2="331.7092"
       y2="35.84182" />
    <radialGradient
       inkscape:collect="always"
       xlink:href="#linearGradient3184"
       id="radialGradient3049"
       gradientUnits="userSpaceOnUse"
       gradientTransform="matrix(2.07507,0.556014,-0.639911,2.38818,-187.165,-314.915)"
       cx="293.05493"
       cy="160.01251"
       fx="293.05493"
       fy="160.01251"
       r="189.28572" />
    <linearGradient
       inkscape:collect="always"
       xlink:href="#linearGradient3176"
       id="linearGradient3051"
       gradientUnits="userSpaceOnUse"
       x1="80.242935"
       y1="392.19894"
       x2="208.64937"
       y2="254.95482" />
    <linearGradient
       inkscape:collect="always"
       xlink:href="#linearGradient3194"
       id="linearGradient3053"
       gradientUnits="userSpaceOnUse"
       x1="296.89822"
       y1="68.567726"
       x2="188.40916"
       y2="391.42859" />
    <radialGradient
       inkscape:collect="always"
       xlink:href="#linearGradient3210"
       id="radialGradient3055"
       gradientUnits="userSpaceOnUse"
       cx="197.85715"
       cy="202.14285"
       fx="197.85715"
       fy="202.14285"
       r="189.28572" />
    <radialGradient
       inkscape:collect="always"
       xlink:href="#linearGradient3222"
       id="radialGradient3057"
       gradientUnits="userSpaceOnUse"
       gradientTransform="matrix(1.07098,0,0,0.668188,-14.0449,-29.8599)"
       cx="197.85715"
       cy="630.49414"
       fx="197.85715"
       fy="630.49414"
       r="189.28572" />
    <radialGradient
       inkscape:collect="always"
       xlink:href="#linearGradient3232"
       id="radialGradient3059"
       gradientUnits="userSpaceOnUse"
       gradientTransform="matrix(0.961684,0.497223,-0.369458,0.714572,-93.6256,109.933)"
       cx="295.90915"
       cy="-341.75525"
       fx="295.90915"
       fy="-341.75525"
       r="189.28572" />
    <linearGradient
       inkscape:collect="always"
       xlink:href="#linearGradient3377"
       id="linearGradient3061"
       gradientUnits="userSpaceOnUse"
       gradientTransform="translate(15,13)"
       x1="222.84375"
       y1="231.44855"
       x2="152.13307"
       y2="77.905357" />
    <linearGradient
       inkscape:collect="always"
       xlink:href="#linearGradient3335"
       id="linearGradient3063"
       gradientUnits="userSpaceOnUse"
       gradientTransform="translate(15,13)"
       x1="171.59375"
       y1="204.66878"
       x2="310.03601"
       y2="237.5" />
    <linearGradient
       inkscape:collect="always"
       xlink:href="#linearGradient3335"
       id="linearGradient3065"
       gradientUnits="userSpaceOnUse"
       gradientTransform="translate(15,13)"
       x1="224.82585"
       y1="185.64465"
       x2="156.40765"
       y2="249.28427" />
    <radialGradient
       inkscape:collect="always"
       xlink:href="#linearGradient3322"
       id="radialGradient3067"
       gradientUnits="userSpaceOnUse"
       cx="197.85715"
       cy="202.14285"
       fx="197.85715"
       fy="202.14285"
       r="189.28572" />
    <linearGradient
       inkscape:collect="always"
       xlink:href="#linearGradient3593"
       id="linearGradient3069"
       gradientUnits="userSpaceOnUse"
       gradientTransform="translate(15,13)"
       x1="84.34774"
       y1="137.36035"
       x2="293.95438"
       y2="62.103973" />
    <linearGradient
       inkscape:collect="always"
       xlink:href="#linearGradient3585"
       id="linearGradient3071"
       gradientUnits="userSpaceOnUse"
       gradientTransform="translate(15,13)"
       x1="72.285706"
       y1="350.66031"
       x2="286.38196"
       y2="215.29987" />
  </defs>
  <sodipodi:namedview
     id="base"
     pagecolor="#ffffff"
     bordercolor="#666666"
     borderopacity="1.0"
     gridtolerance="10000"
     guidetolerance="10"
     objecttolerance="10"
     inkscape:pageopacity="0.0"
     inkscape:pageshadow="2"
     inkscape:zoom="0.7"
     inkscape:cx="196.84787"
     inkscape:cy="198.23273"
     inkscape:document-units="px"
     inkscape:current-layer="layer1"
     width="430px"
     height="430px"
     inkscape:window-width="1024"
     inkscape:window-height="708"
     inkscape:window-x="-4"
     inkscape:window-y="-4"
     showguides="true"
     inkscape:guide-bbox="true"
     showgrid="false"
     inkscape:window-maximized="1" />
  <metadata
     id="metadata7">
    <rdf:RDF>
      <cc:Work
         rdf:about="">
        <dc:format>image/svg+xml</dc:format>
        <dc:type
           rdf:resource="http://purl.org/dc/dcmitype/StillImage" />
        <dc:title></dc:title>
      </cc:Work>
    </rdf:RDF>
  </metadata>
  <g
     inkscape:label="Layer 1"
     inkscape:groupmode="layer"
     id="layer1"
     transform="translate(-5.0000062,-13.000485)">
    <g
       id="g3024">
      <path
         transform="matrix(1.08302,0,0,1.08302,-4.28302,5.0755)"
         d="m 387.14287,202.14285 c 0,104.53962 -84.74611,189.28572 -189.28572,189.28572 -104.53962,0 -189.2857236,-84.7461 -189.2857236,-189.28572 0,-104.539614 84.7461036,-189.285718 189.2857236,-189.285718 104.53961,0 189.28572,84.746104 189.28572,189.285718 z"
         sodipodi:ry="189.28572"
         sodipodi:rx="189.28572"
         sodipodi:cy="202.14285"
         sodipodi:cx="197.85715"
         id="path3675"
         style="color:#000000;fill:url(#radialGradient3045);fill-opacity:1;fill-rule:evenodd;stroke:none;stroke-width:2.70000005;marker:none;visibility:visible;display:inline;overflow:visible"
         sodipodi:type="arc" />
      <path
         transform="matrix(1.0566,0,0,1.0566,5.94341,-0.584879)"
         d="m 387.14287,202.14285 c 0,104.53962 -84.74611,189.28572 -189.28572,189.28572 -104.53962,0 -189.2857236,-84.7461 -189.2857236,-189.28572 0,-104.539614 84.7461036,-189.285718 189.2857236,-189.285718 104.53961,0 189.28572,84.746104 189.28572,189.285718 z"
         sodipodi:ry="189.28572"
         sodipodi:rx="189.28572"
         sodipodi:cy="202.14285"
         sodipodi:cx="197.85715"
         id="path2170"
         style="color:#000000;fill:url(#linearGradient3047);fill-opacity:1;fill-rule:evenodd;stroke:none;stroke-width:2.70000005;marker:none;visibility:visible;display:inline;overflow:visible"
         sodipodi:type="arc" />
      <path
         transform="matrix(1.03547,0,0,1.03547,10.1245,3.68681)"
         d="m 387.14287,202.14285 c 0,104.53962 -84.74611,189.28572 -189.28572,189.28572 -104.53962,0 -189.2857236,-84.7461 -189.2857236,-189.28572 0,-104.539614 84.7461036,-189.285718 189.2857236,-189.285718 104.53961,0 189.28572,84.746104 189.28572,189.285718 z"
         sodipodi:ry="189.28572"
         sodipodi:rx="189.28572"
         sodipodi:cy="202.14285"
         sodipodi:cx="197.85715"
         id="path2172"
         style="color:#000000;fill:#b1b1b1;fill-opacity:1;fill-rule:evenodd;stroke:none;stroke-width:2.70000005;marker:none;visibility:visible;display:inline;overflow:visible"
         sodipodi:type="arc" />
      <path
         sodipodi:end="3.1415927"
         sodipodi:start="0"
         transform="matrix(1.00019,0.268,-0.268,1.00019,71.2797,-42.2067)"
         d="m 387.14287,202.14285 c 0,104.53962 -84.74611,189.28572 -189.28572,189.28572 -104.53962,0 -189.2857236,-84.7461 -189.2857236,-189.28572 0,0 0,0 0,-1e-5 l 189.2857236,1e-5 z"
         sodipodi:ry="189.28572"
         sodipodi:rx="189.28572"
         sodipodi:cy="202.14285"
         sodipodi:cx="197.85715"
         id="path3168"
         style="color:#000000;fill:url(#radialGradient3049);fill-opacity:1;fill-rule:evenodd;stroke:none;stroke-width:2.70000005;marker:none;visibility:visible;display:inline;overflow:visible"
         sodipodi:type="arc" />
      <path
         inkscape:transform-center-x="-3.359334"
         inkscape:transform-center-y="-72.655817"
         sodipodi:end="3.1415927"
         sodipodi:start="0"
         transform="matrix(-1.00019,-0.268,0.268,-1.00019,358.72,468.207)"
         d="m 387.14287,202.14285 c 0,104.53962 -84.74611,189.28572 -189.28572,189.28572 -104.53962,0 -189.2857236,-84.7461 -189.2857236,-189.28572 0,0 0,0 0,-1e-5 l 189.2857236,1e-5 z"
         sodipodi:ry="189.28572"
         sodipodi:rx="189.28572"
         sodipodi:cy="202.14285"
         sodipodi:cx="197.85715"
         id="path3174"
         style="color:#000000;fill:url(#linearGradient3051);fill-opacity:1;fill-rule:evenodd;stroke:none;stroke-width:2.70000005;marker:none;visibility:visible;display:inline;overflow:visible"
         sodipodi:type="arc" />
      <path
         transform="matrix(0.876981,0,0,0.876981,41.483,35.7246)"
         d="m 387.14287,202.14285 c 0,104.53962 -84.74611,189.28572 -189.28572,189.28572 -104.53962,0 -189.2857236,-84.7461 -189.2857236,-189.28572 0,-104.539614 84.7461036,-189.285718 189.2857236,-189.285718 104.53961,0 189.28572,84.746104 189.28572,189.285718 z"
         sodipodi:ry="189.28572"
         sodipodi:rx="189.28572"
         sodipodi:cy="202.14285"
         sodipodi:cx="197.85715"
         id="path3146"
         style="color:#000000;fill:url(#linearGradient3053);fill-opacity:1;fill-rule:evenodd;stroke:none;stroke-width:2.70000005;marker:none;visibility:visible;display:inline;overflow:visible"
         sodipodi:type="arc" />
      <path
         transform="matrix(0.845283,0,0,0.845283,47.7547,42.1321)"
         d="m 387.14287,202.14285 c 0,104.53962 -84.74611,189.28572 -189.28572,189.28572 -104.53962,0 -189.2857236,-84.7461 -189.2857236,-189.28572 0,-104.539614 84.7461036,-189.285718 189.2857236,-189.285718 104.53961,0 189.28572,84.746104 189.28572,189.285718 z"
         sodipodi:ry="189.28572"
         sodipodi:rx="189.28572"
         sodipodi:cy="202.14285"
         sodipodi:cx="197.85715"
         id="path3148"
         style="color:#000000;fill:url(#radialGradient3055);fill-opacity:1;fill-rule:evenodd;stroke:none;stroke-width:2.70000005;marker:none;visibility:visible;display:inline;overflow:visible"
         sodipodi:type="arc" />
      <path
         transform="matrix(0.818868,0,0,0.818868,52.9811,47.4717)"
         d="m 387.14287,202.14285 c 0,104.53962 -84.74611,189.28572 -189.28572,189.28572 -104.53962,0 -189.2857236,-84.7461 -189.2857236,-189.28572 0,-104.539614 84.7461036,-189.285718 189.2857236,-189.285718 104.53961,0 189.28572,84.746104 189.28572,189.285718 z"
         sodipodi:ry="189.28572"
         sodipodi:rx="189.28572"
         sodipodi:cy="202.14285"
         sodipodi:cx="197.85715"
         id="path3218"
         style="color:#000000;fill:url(#radialGradient3057);fill-opacity:1;fill-rule:evenodd;stroke:none;stroke-width:2.70000005;marker:none;visibility:visible;display:inline;overflow:visible"
         sodipodi:type="arc" />
      <path
         transform="matrix(0.792453,0,0,0.792453,58.2076,52.8113)"
         d="m 387.14287,202.14285 c 0,104.53962 -84.74611,189.28572 -189.28572,189.28572 -104.53962,0 -189.2857236,-84.7461 -189.2857236,-189.28572 0,-104.539614 84.7461036,-189.285718 189.2857236,-189.285718 104.53961,0 189.28572,84.746104 189.28572,189.285718 z"
         sodipodi:ry="189.28572"
         sodipodi:rx="189.28572"
         sodipodi:cy="202.14285"
         sodipodi:cx="197.85715"
         id="path3361"
         style="color:#000000;fill:url(#radialGradient3059);fill-opacity:1;fill-rule:evenodd;stroke:none;stroke-width:2.70000005;marker:none;visibility:visible;display:inline;overflow:visible"
         sodipodi:type="arc" />
      <path
         id="path3359"
         d="m 140.88223,87.49293 -4.30028,2.574059 68.97825,114.866241 c -2.83976,2.5255 -4.61314,6.2032 -4.54297,10.2981 0.12769,7.4509 6.27842,13.39439 13.72933,13.26671 1.57311,-0.027 3.05893,-0.33823 4.45471,-0.85771 l 14.47808,24.13048 4.26903,-2.57353 -14.47808,-24.13047 c 2.83976,-2.5255 4.61314,-6.2032 4.54297,-10.2981 -0.12769,-7.4509 -6.27842,-13.39439 -13.72933,-13.26671 -1.57311,0.027 -3.05893,0.33823 -4.45471,0.85771 l -68.947,-114.86678 z"
         style="color:#000000;fill:#000000;fill-opacity:0.16571398;fill-rule:evenodd;stroke:none;stroke-width:2.70000005;marker:none;visibility:visible;display:inline;overflow:visible" />
      <path
         id="path3259"
         d="m 143.56251,84.250015 -4.34375,2.5 67,116.031255 c -2.88262,2.47647 -4.71875,6.12325 -4.71875,10.21875 0,7.452 6.048,13.5 13.5,13.5 1.57334,0 3.06428,-0.28577 4.46875,-0.78125 l 14.0625,24.375 4.3125,-2.5 -14.0625,-24.375 c 2.88262,-2.47647 4.71875,-6.12325 4.71875,-10.21875 0,-7.452 -6.048,-13.5 -13.5,-13.5 -1.57334,0 -3.06428,0.28577 -4.46875,0.78125 L 143.56251,84.250015 z"
         style="color:#000000;fill:url(#linearGradient3061);fill-opacity:1;fill-rule:evenodd;stroke:none;stroke-width:2.70000005;marker:none;visibility:visible;display:inline;overflow:visible" />
      <path
         id="path3367"
         d="m 215.20436,202.6446 c -4.29172,-0.0731 -8.0726,2.12751 -10.2511,5.48248 l -16.36008,-4.68553 -1.92718,6.71816 16.36008,4.68552 c 0.10828,6.43586 5.2847,11.68544 11.76958,11.79589 4.29754,0.0732 8.10531,-2.11928 10.28234,-5.48195 l 115.70258,33.13137 1.89594,-6.71869 -115.70258,-33.13136 c -0.10828,-6.43586 -5.2847,-11.68544 -11.76958,-11.79589 z"
         style="color:#000000;fill:#000000;fill-opacity:0.16571398;fill-rule:evenodd;stroke:none;stroke-width:2.70000005;marker:none;visibility:visible;display:inline;overflow:visible" />
      <path
         id="path3281"
         d="m 215.00001,201.00002 c -4.29234,0 -8.0352,2.26467 -10.15625,5.65625 l -16.4375,-4.40625 -1.8125,6.75 16.4375,4.40625 c 0.21786,6.43308 5.48293,11.59375 11.96875,11.59375 4.29816,0 8.06804,-2.257 10.1875,-5.65625 l 116.25,31.15625 1.78125,-6.75 -116.25,-31.15625 c -0.21786,-6.43308 -5.48293,-11.59375 -11.96875,-11.59375 z"
         style="color:#000000;fill:url(#linearGradient3063);fill-opacity:1;fill-rule:evenodd;stroke:none;stroke-width:2.70000005;marker:none;visibility:visible;display:inline;overflow:visible" />
      <path
         id="path3369"
         d="m 233.43153,192.68641 -12.67251,13.01273 c -1.69075,-1.11022 -3.72477,-1.73207 -5.89808,-1.70328 -5.79549,0.0768 -10.43677,4.84266 -10.36001,10.63815 0.0288,2.17331 0.70429,4.19014 1.85891,5.85089 l -54.11256,55.56532 2.88116,2.80584 54.11256,-55.56532 c 1.69075,1.11022 3.72477,1.73207 5.89808,1.70328 5.79549,-0.0768 10.43677,-4.84266 10.36001,-10.63815 -0.0288,-2.17331 -0.70429,-4.19014 -1.85891,-5.85089 l 12.67252,-13.01273 -2.88117,-2.80584 z"
         style="color:#000000;fill:#000000;fill-opacity:0.16571398;fill-rule:evenodd;stroke:none;stroke-width:2.70000005;marker:none;visibility:visible;display:inline;overflow:visible" />
      <path
         id="rect3291"
         d="m 233.71876,191.43752 -12.84375,12.84375 c -1.6759,-1.13252 -3.7015,-1.78125 -5.875,-1.78125 -5.796,0 -10.5,4.704 -10.5,10.5 0,2.1735 0.64873,4.1991 1.78125,5.875 l -54.84375,54.84375 2.84375,2.84375 54.84375,-54.84375 c 1.6759,1.13252 3.7015,1.78125 5.875,1.78125 5.796,0 10.5,-4.704 10.5,-10.5 0,-2.1735 -0.64873,-4.1991 -1.78125,-5.875 l 12.84375,-12.84375 -2.84375,-2.84375 z"
         style="color:#000000;fill:url(#linearGradient3065);fill-opacity:1;fill-rule:evenodd;stroke:none;stroke-width:2.70000005;marker:none;visibility:visible;display:inline;overflow:visible" />
      <path
         transform="matrix(0.0422641,0,0,0.0422641,206.638,204.457)"
         d="m 387.14287,202.14285 c 0,104.53962 -84.74611,189.28572 -189.28572,189.28572 -104.53962,0 -189.2857236,-84.7461 -189.2857236,-189.28572 0,-104.539614 84.7461036,-189.285718 189.2857236,-189.285718 104.53961,0 189.28572,84.746104 189.28572,189.285718 z"
         sodipodi:ry="189.28572"
         sodipodi:rx="189.28572"
         sodipodi:cy="202.14285"
         sodipodi:cx="197.85715"
         id="path3320"
         style="color:#000000;fill:#9c9c9c;fill-opacity:1;fill-rule:evenodd;stroke:none;stroke-width:2.70000005;marker:none;visibility:visible;display:inline;overflow:visible"
         sodipodi:type="arc" />
      <path
         transform="matrix(0.0369811,0,0,0.0369811,207.683,205.525)"
         d="m 387.14287,202.14285 c 0,104.53962 -84.74611,189.28572 -189.28572,189.28572 -104.53962,0 -189.2857236,-84.7461 -189.2857236,-189.28572 0,-104.539614 84.7461036,-189.285718 189.2857236,-189.285718 104.53961,0 189.28572,84.746104 189.28572,189.285718 z"
         sodipodi:ry="189.28572"
         sodipodi:rx="189.28572"
         sodipodi:cy="202.14285"
         sodipodi:cx="197.85715"
         id="path3386"
         style="color:#000000;fill:url(#radialGradient3067);fill-opacity:1;fill-rule:evenodd;stroke:none;stroke-width:2.70000005;marker:none;visibility:visible;display:inline;overflow:visible"
         sodipodi:type="arc" />
      <path
         id="path3490"
         d="m 213.12501,22.687515 -7.46875,0.46875 0.0312,0.75 c 0.42166,0.01393 0.76926,0.0387 1.03125,0.0625 0.28068,0.0026 0.4916,0.02384 0.65625,0.09375 0.18336,0.04875 0.33768,0.145256 0.40625,0.28125 0.0873,0.114833 0.11011,0.29173 0.125,0.53125 0.0285,0.459135 -0.20568,1.147039 -0.75,2.0625 -0.52562,0.894295 -1.30506,2.099675 -2.3125,3.625 l -3.1875,-4.3125 c -0.32792,-0.440513 -0.48265,-0.783019 -0.5,-1.0625 -0.0198,-0.319366 0.059,-0.56661 0.25,-0.71875 0.2109,-0.15334 0.58726,-0.259067 1.125,-0.3125 0.0599,-0.0037 0.3498,-0.05037 0.90625,-0.125 l -0.0312,-0.71875 -10.375,0.625 0.0625,0.75 c 0.54144,0.0065 0.96819,0.111526 1.28125,0.3125 0.31305,0.201012 0.71751,0.63107 1.21875,1.28125 l 6.46875,8.34375 -4.8125,6.9375 c -0.42443,0.587423 -0.85696,1.014456 -1.28125,1.28125 -0.42429,0.266797 -1.01638,0.468063 -1.75,0.59375 l 0.0625,0.75 7.46875,-0.46875 -0.0312,-0.75 c -0.92443,-0.04281 -1.56829,-0.143857 -1.9375,-0.28125 -0.3505,-0.15859 -0.53897,-0.401979 -0.5625,-0.78125 -0.0198,-0.319383 0.12788,-0.826397 0.46875,-1.46875 0.34086,-0.642345 1.0388,-1.757282 2.0625,-3.34375 l 1.03125,-1.59375 3.3125,4.6875 c 0.46007,0.632717 0.72396,1.143309 0.75,1.5625 0.031,0.499041 -0.46572,0.81319 -1.5,0.9375 -0.0399,0.0025 -0.32723,0.05287 -0.84375,0.125 l 0.0312,0.71875 10.1875,-0.625 -0.0312,-0.75 c -0.52026,0.01225 -0.96587,-0.09788 -1.34375,-0.375 -0.35919,-0.29832 -0.93325,-0.966675 -1.71875,-2 l -6,-8.15625 2.1875,-3.46875 c 1.20718,-1.858335 2.12346,-3.065094 2.75,-3.625 0.6265,-0.559867 1.51333,-0.92454 2.625,-1.09375 l -0.0625,-0.75 z m 3.53125,0.1875 -0.0312,0.75 c 1.07645,0.118611 1.78721,0.311615 2.15625,0.625 0.38972,0.294151 0.58968,0.834255 0.5625,1.59375 l -0.53125,14.5 c -0.0272,0.759515 -0.23522,1.296277 -0.625,1.5625 -0.36979,0.266941 -1.09589,0.408889 -2.21875,0.46875 l -0.0312,0.75 10.46875,0.375 0.0312,-0.75 c -1.13642,-0.120738 -1.88027,-0.331583 -2.25,-0.625 -0.36975,-0.293416 -0.52792,-0.814247 -0.5,-1.59375 l 0.5,-14.5 c 0.0279,-0.779483 0.24576,-1.339486 0.65625,-1.625 0.41047,-0.285477 1.18051,-0.405615 2.28125,-0.40625 l 0.0312,-0.75 -10.5,-0.375 z m 12.96875,0.53125 -0.0625,0.75 c 1.06576,0.192244 1.77837,0.443265 2.125,0.78125 0.36861,0.320217 0.51676,0.869164 0.4375,1.625 l -1.53125,14.4375 c -0.0793,0.755855 -0.31162,1.261171 -0.71875,1.5 -0.38725,0.24092 -1.15693,0.361132 -2.28125,0.34375 l -0.0625,0.75 10.4375,1.09375 0.0625,-0.75 c -1.12544,-0.198485 -1.83879,-0.463136 -2.1875,-0.78125 -0.34872,-0.318112 -0.48763,-0.880506 -0.40625,-1.65625 l 1.5,-14.4375 c 0.0814,-0.775728 0.35213,-1.274596 0.78125,-1.53125 0.4291,-0.256618 1.18306,-0.356198 2.28125,-0.28125 l 0.0937,-0.75 -10.46875,-1.09375 z m -103.34375,22.21875 -9.09375,5.1875 0.34375,0.65625 c 0.97801,-0.465088 1.70883,-0.666295 2.1875,-0.59375 0.48617,0.0453 0.93629,0.402162 1.3125,1.0625 l 7.1875,12.59375 c 0.37622,0.660354 0.47282,1.224861 0.28125,1.65625 -0.17419,0.421493 -0.7326,0.952447 -1.65625,1.59375 l 0.34375,0.65625 9.15625,-5.21875 -0.375,-0.625 c -1.03013,0.494813 -1.78124,0.711439 -2.25,0.65625 -0.46879,-0.05517 -0.89514,-0.416013 -1.28125,-1.09375 l -7.1875,-12.625 c -0.38611,-0.67771 -0.48029,-1.260058 -0.28125,-1.71875 0.19906,-0.458647 0.78278,-0.983207 1.71875,-1.5625 l -0.40625,-0.625 z m 188.3125,5.46875 -0.40625,0.625 c 0.86063,0.657345 1.377,1.228586 1.53125,1.6875 0.18189,0.453128 0.0404,0.988596 -0.375,1.625 l -7.90625,12.15625 c -0.41543,0.636414 -0.8725,0.973242 -1.34375,1 -0.45451,0.03769 -1.19497,-0.221536 -2.1875,-0.75 l -0.40625,0.625 8.8125,5.75 0.40625,-0.625 c -0.9109,-0.69013 -1.45986,-1.245321 -1.625,-1.6875 -0.16516,-0.442183 -0.0201,-1.003093 0.40625,-1.65625 l 7.9375,-12.15625 c 0.42634,-0.653149 0.87604,-0.998669 1.375,-1.03125 0.49892,-0.03256 1.21325,0.244733 2.15625,0.8125 l 0.40625,-0.625 -8.78125,-5.75 z m -200.5,1.4375 -6.125,4.3125 0.4375,0.625 c 0.36591,-0.210001 0.63967,-0.382396 0.875,-0.5 0.24008,-0.145432 0.47943,-0.222823 0.65625,-0.25 0.18157,-0.055 0.33889,-0.04833 0.46875,0.03125 0.13463,0.05174 0.23633,0.179139 0.375,0.375 0.26578,0.375468 0.41875,1.091358 0.4375,2.15625 0.0235,1.037063 -0.008,2.454073 -0.0625,4.28125 l -4.9375,-1.96875 c -0.51064,-0.202088 -0.83822,-0.4277 -1,-0.65625 -0.1849,-0.261153 -0.26984,-0.488902 -0.1875,-0.71875 0.0987,-0.241359 0.38332,-0.546652 0.8125,-0.875 0.049,-0.03465 0.2848,-0.206273 0.71875,-0.5625 l -0.4375,-0.625 -8.468752,5.96875 0.4375,0.65625 c 0.463867,-0.279346 0.878039,-0.412455 1.25,-0.40625 0.371973,0.0062 0.950412,0.148295 1.718752,0.4375 l 9.875,3.6875 -0.46875,8.4375 c -0.0519,0.72285 -0.1858,1.299889 -0.40625,1.75 -0.22046,0.450116 -0.56725,0.944647 -1.125,1.4375 l 0.4375,0.59375 6.09375,-4.3125 -0.4375,-0.625 c -0.80867,0.44995 -1.39498,0.703843 -1.78125,0.78125 -0.38151,0.04954 -0.6867,-0.06484 -0.90625,-0.375 -0.1849,-0.261176 -0.32694,-0.774393 -0.375,-1.5 -0.0481,-0.725584 -0.0359,-2.018514 0,-3.90625 l 0.0312,-1.90625 5.28125,2.1875 c 0.72414,0.296021 1.22608,0.65721 1.46875,1 0.2889,0.408097 0.0329,0.912638 -0.78125,1.5625 -0.0327,0.02312 -0.25496,0.198163 -0.65625,0.53125 l 0.4375,0.625 8.3125,-5.90625 -0.4375,-0.59375 c -0.43599,0.284142 -0.8766,0.380611 -1.34375,0.34375 -0.46241,-0.06472 -1.31959,-0.315762 -2.53125,-0.78125 l -9.34375,-3.78125 0.0312,-4.09375 c 0.0489,-2.215469 0.19926,-3.725467 0.4375,-4.53125 0.23822,-0.805732 0.79989,-1.583733 1.65625,-2.3125 l -0.4375,-0.59375 z m 261.3125,57.812505 -0.625,0.40625 c 0.49237,0.96454 0.68406,1.67571 0.625,2.15625 -0.0316,0.48724 -0.3505,0.91788 -1,1.3125 l -12.4375,7.5625 c -0.64954,0.39462 -1.18837,0.49188 -1.625,0.3125 -0.4262,-0.16227 -0.95799,-0.68848 -1.625,-1.59375 l -0.65625,0.375 5.46875,8.96875 0.625,-0.375 c -0.52356,-1.01584 -0.76076,-1.77986 -0.71875,-2.25 0.042,-0.47015 0.42714,-0.9075 1.09375,-1.3125 l 12.40625,-7.53125 c 0.66658,-0.40501 1.22338,-0.49858 1.6875,-0.3125 0.46405,0.18609 0.98837,0.73693 1.59375,1.65625 l 0.65625,-0.375 -5.46875,-9 z m -321.093752,0.71875 -3.6875,6.53125 0.65625,0.375 c 0.241032,-0.34626 0.462534,-0.60561 0.625,-0.8125 0.154888,-0.23411 0.289268,-0.39985 0.4375,-0.5 0.140643,-0.12733 0.286087,-0.20393 0.4375,-0.1875 0.143829,-0.0108 0.322161,0.0385 0.53125,0.15625 0.400769,0.22584 0.840376,0.82654 1.3125,1.78125 0.464541,0.92749 1.080511,2.23121 1.8125,3.90625 l -5.375,0.3125 c -0.548019,0.0356 -0.943545,-0.0188 -1.1875,-0.15625 -0.278777,-0.15708 -0.413696,-0.35076 -0.4375,-0.59375 -0.01396,-0.26038 0.0961,-0.61345 0.34375,-1.09375 0.02947,-0.0523 0.166207,-0.33621 0.40625,-0.84375 l -0.65625,-0.375 -5.09375,9.03125 0.65625,0.375 c 0.299946,-0.45081 0.62983,-0.75288 0.96875,-0.90625 0.338953,-0.15336 0.900528,-0.24555 1.71875,-0.3125 l 10.53125,-0.90625 3.1875,7.84375 c 0.262068,0.67568 0.381902,1.24886 0.375,1.75 -0.0069,0.50117 -0.143933,1.09727 -0.4375,1.78125 l 0.65625,0.375 3.6875,-6.53125 -0.65625,-0.375 c -0.538748,0.75244 -0.965131,1.23365 -1.28125,1.46875 -0.323723,0.20786 -0.66894,0.2178 -1,0.0312 -0.278793,-0.15708 -0.583887,-0.55207 -0.9375,-1.1875 -0.353614,-0.63541 -0.913045,-1.80932 -1.6875,-3.53125 l -0.78125,-1.75 5.71875,-0.25 c 0.781178,-0.0419 1.352836,0.0438 1.71875,0.25 0.435599,0.24547 0.427008,0.84572 -0.03125,1.78125 -0.01964,0.0349 -0.123337,0.27733 -0.34375,0.75 l 0.65625,0.375 5,-8.875 -0.65625,-0.375 c -0.272702,0.44323 -0.624422,0.7399 -1.0625,0.90625 -0.445705,0.13914 -1.330644,0.24665 -2.625,0.34375 l -10.0625,0.59375 -1.71875,-3.71875 c -0.90278,-2.02378 -1.433447,-3.45096 -1.5625,-4.28125 -0.129034,-0.83025 0.03733,-1.75638 0.5,-2.78125 l -0.65625,-0.375 z m 327.750002,10.40625 -0.65625,0.375 c 0.42587,0.99571 0.59149,1.71208 0.5,2.1875 -0.0646,0.48397 -0.41899,0.90032 -1.09375,1.25 l -12.875,6.6875 c -0.67477,0.3497 -1.23281,0.42729 -1.65625,0.21875 -0.41426,-0.19081 -0.95836,-0.77035 -1.5625,-1.71875 l -0.65625,0.375 4.84375,9.28125 0.65625,-0.34375 c -0.45351,-1.04898 -0.63625,-1.81503 -0.5625,-2.28125 0.0737,-0.46622 0.46374,-0.85985 1.15625,-1.21875 l 12.90625,-6.6875 c 0.6925,-0.35891 1.26832,-0.43585 1.71875,-0.21875 0.45039,0.2171 0.92708,0.79179 1.46875,1.75 l 0.65625,-0.3125 -4.84375,-9.34375 z m 22.375,75.21875 -0.75,0.0312 c -0.0166,1.08283 -0.19156,1.82183 -0.46875,2.21875 -0.25611,0.41571 -0.74132,0.64296 -1.5,0.6875 l -14.5,0.84375 c -0.75869,0.0445 -1.29198,-0.0746 -1.59375,-0.4375 -0.30062,-0.34299 -0.55332,-1.10653 -0.71875,-2.21875 l -0.75,0.0625 0.65625,10.46875 0.75,-0.0312 c 0.0131,-1.14273 0.14898,-1.91677 0.40625,-2.3125 0.25724,-0.39576 0.75259,-0.61056 1.53125,-0.65625 l 14.46875,-0.875 c 0.77863,-0.0457 1.36456,0.1495 1.6875,0.53125 0.32289,0.38172 0.5206,1.09172 0.625,2.1875 l 0.75,0 -0.59375,-10.5 z m -19.625,12.75 -0.0937,10.5 0.75,0.0312 c 0.0907,-1.13922 0.27894,-1.90391 0.5625,-2.28125 0.28354,-0.37735 0.84503,-0.53858 1.625,-0.53125 l 14.5,0.0937 c 0.77996,0.007 1.29748,0.22219 1.59375,0.625 0.2962,0.40278 0.47032,1.14967 0.5,2.25 l 0.75,0.0312 0.0937,-10.5 -0.75,-0.0312 c -0.0901,1.07921 -0.29022,1.81033 -0.59375,2.1875 -0.28377,0.39735 -0.7713,0.60087 -1.53125,0.59375 l -14.53125,-0.125 c -0.75998,-0.007 -1.28609,-0.21114 -1.5625,-0.59375 -0.2766,-0.36261 -0.47302,-1.09786 -0.5625,-2.21875 l -0.75,-0.0312 z m -0.125,11.625 -0.8125,10.46875 0.75,0.0312 c 0.16849,-1.13032 0.41002,-1.83043 0.71875,-2.1875 0.30874,-0.35706 0.81611,-0.52947 1.59375,-0.46875 l 14.5,1.125 c 0.77761,0.0607 1.32578,0.32786 1.59375,0.75 0.26794,0.42214 0.32698,1.18144 0.28125,2.28125 l 0.75,0.0312 0.84375,-10.4375 -0.75,-0.0937 c -0.16383,1.0705 -0.42135,1.80075 -0.75,2.15625 -0.31032,0.37698 -0.83609,0.52791 -1.59375,0.46875 l -14.46875,-1.09375 c -0.7577,-0.0592 -1.25044,-0.31811 -1.5,-0.71875 -0.25113,-0.38071 -0.39372,-1.12561 -0.40625,-2.25 l -0.75,-0.0625 z"
         style="font-size:24px;font-style:normal;font-variant:normal;font-weight:bold;font-stretch:normal;text-align:start;line-height:100%;text-anchor:start;fill:url(#linearGradient3069);fill-opacity:1;stroke:none;font-family:FreeSerif" />
      <path
         id="path3478"
         d="m 25.468758,195.68752 -0.3125,7.53125 0.75,0 c 0.05625,-0.41811 0.137481,-0.74172 0.1875,-1 0.03085,-0.279 0.07013,-0.49946 0.15625,-0.65625 0.06694,-0.17752 0.1703,-0.2892 0.3125,-0.34375 0.123025,-0.0753 0.322698,-0.10303 0.5625,-0.0937 0.459672,0.0178 1.081411,0.33515 1.9375,0.96875 0.836912,0.61287 1.989952,1.50055 3.40625,2.65625 l -4.625,2.71875 c -0.471254,0.28196 -0.845193,0.41709 -1.125,0.40625 -0.319742,-0.0124 -0.55533,-0.1072 -0.6875,-0.3125 -0.131357,-0.22523 -0.188406,-0.61587 -0.1875,-1.15625 0.0023,-0.0599 0.0183,-0.37637 0,-0.9375 l -0.75,0 -0.4375,10.34375 0.75,0.0625 c 0.0609,-0.53805 0.206069,-0.98999 0.4375,-1.28125 0.231471,-0.29125 0.708966,-0.62919 1.40625,-1.0625 l 8.96875,-5.625 6.40625,5.53125 c 0.541769,0.48135 0.902218,0.95731 1.125,1.40625 0.222782,0.44897 0.386217,1.00746 0.4375,1.75 l 0.75,0.0625 0.28125,-7.53125 -0.75,0 c -0.135549,0.91546 -0.29493,1.52148 -0.46875,1.875 -0.193029,0.33277 -0.495282,0.51472 -0.875,0.5 -0.319758,-0.0124 -0.738927,-0.25252 -1.34375,-0.65625 -0.604815,-0.40373 -1.649504,-1.16574 -3.125,-2.34375 l -1.5,-1.1875 4.96875,-2.84375 c 0.67577,-0.39412 1.205316,-0.57875 1.625,-0.5625 0.499625,0.0194 0.792817,0.55223 0.8125,1.59375 -0.0015,0.04 0.01141,0.3226 0.03125,0.84375 l 0.75,0 0.375,-10.15625 -0.75,-0.0625 c -0.04012,0.51885 -0.217536,0.9644 -0.53125,1.3125 -0.332925,0.32738 -1.049179,0.82238 -2.15625,1.5 l -8.6875,5.125 -3.25,-2.5 c -1.727536,-1.38793 -2.818429,-2.44533 -3.3125,-3.125 -0.494035,-0.67962 -0.755925,-1.56444 -0.8125,-2.6875 l -0.75,-0.0625 z m 19.71875,22.0625 -0.75,0.0312 c -0.0121,1.14275 -0.14933,1.91654 -0.40625,2.3125 -0.256915,0.396 -0.752626,0.64114 -1.53125,0.6875 l -14.5,0.84375 c -0.778603,0.0464 -1.332986,-0.11853 -1.65625,-0.5 -0.323225,-0.38145 -0.519668,-1.12307 -0.625,-2.21875 l -0.75,0.0625 0.625,10.46875 0.75,-0.0312 c 0.01568,-1.08285 0.160637,-1.85283 0.4375,-2.25 0.255748,-0.41593 0.741362,-0.64232 1.5,-0.6875 l 14.5,-0.84375 c 0.758658,-0.0452 1.291661,0.10606 1.59375,0.46875 0.300903,0.3427 0.552359,1.07544 0.71875,2.1875 l 0.75,-0.0625 -0.65625,-10.46875 z m 10.3125,52.0625 -0.6875,0.25 c 0.33607,1.09227 0.436802,1.88839 0.3125,2.34375 -0.124289,0.45537 -0.553627,0.78151 -1.28125,1.0625 l -13.5625,5.25 c -0.72761,0.281 -1.294762,0.29631 -1.71875,0.0312 -0.423938,-0.26507 -0.816377,-0.92577 -1.25,-1.9375 l -0.71875,0.28125 3.75,9.8125 0.71875,-0.28125 c -0.314434,-1.03631 -0.392939,-1.75619 -0.25,-2.21875 0.117113,-0.47402 0.509803,-0.88247 1.21875,-1.15625 l 13.5625,-5.21875 c 0.708974,-0.2738 1.289396,-0.28486 1.6875,-0.0312 0.390899,0.23495 0.815724,0.86624 1.3125,1.875 l 0.6875,-0.28125 -3.78125,-9.78125 z m 4.21875,10.78125 -0.65625,0.3125 c 0.410464,1.06655 0.561415,1.84967 0.46875,2.3125 -0.09265,0.46284 -0.480944,0.88834 -1.1875,1.21875 l -13.15625,6.125 c -0.706543,0.33041 -1.277532,0.36024 -1.71875,0.125 -0.441182,-0.23526 -0.935261,-0.83302 -1.4375,-1.8125 l -0.65625,0.3125 4.4375,9.53125 0.65625,-0.34375 c -0.385027,-1.01219 -0.517005,-1.71622 -0.40625,-2.1875 0.0842,-0.48098 0.499077,-0.89679 1.1875,-1.21875 l 13.15625,-6.15625 c 0.688446,-0.32197 1.241641,-0.3506 1.65625,-0.125 0.406139,0.2075 0.872459,0.77783 1.4375,1.75 l 0.6875,-0.3125 -4.46875,-9.53125 z m 309.843752,2.9375 -4.65625,9.40625 0.6875,0.375 c 0.57598,-0.98704 1.0808,-1.6268 1.5,-1.84375 0.41919,-0.21699 0.95669,-0.12626 1.65625,0.21875 l 13.0625,6.4375 c 0.69955,0.345 1.06409,0.7273 1.15625,1.21875 0.0921,0.49143 -0.0806,1.24572 -0.53125,2.25 l 0.65625,0.3125 4.65625,-9.375 -0.65625,-0.34375 c -0.54943,0.93324 -1.03162,1.51061 -1.46875,1.71875 -0.42804,0.23489 -1.00591,0.1799 -1.6875,-0.15625 l -13,-6.4375 c -0.68161,-0.33614 -1.10447,-0.72284 -1.1875,-1.1875 -0.0919,-0.44674 0.0631,-1.20129 0.46875,-2.25 l -0.65625,-0.34375 z m -304.875002,7.5625 -0.6875,0.375 c 0.482858,1.03579 0.748104,1.78189 0.6875,2.25 -0.0606,0.46812 -0.474086,0.90303 -1.15625,1.28125 l -12.65625,7.03125 c -0.682136,0.37824 -1.2624,0.48559 -1.71875,0.28125 -0.456313,-0.20436 -0.994077,-0.77613 -1.5625,-1.71875 l -0.65625,0.34375 5.125,9.1875 0.625,-0.375 c -0.453732,-0.9833 -0.640576,-1.70971 -0.5625,-2.1875 0.05093,-0.48562 0.397852,-0.91272 1.0625,-1.28125 l 12.71875,-7.03125 c 0.664661,-0.36853 1.227103,-0.4778 1.65625,-0.28125 0.419445,0.17905 0.93193,0.7565 1.5625,1.6875 l 0.65625,-0.375 -5.09375,-9.1875 z m 294.062502,11.34375 -0.40625,0.6875 11.34375,15.09375 c 0.60794,0.80223 0.94557,1.44478 1.03125,1.875 0.0751,0.44712 -0.0478,1.03488 -0.375,1.75 l 0.625,0.375 3.375,-5.4375 -0.625,-0.375 c -0.63849,0.87472 -1.1326,1.40653 -1.4375,1.59375 -0.30492,0.18716 -0.65497,0.15981 -1.0625,-0.0937 -0.33965,-0.21134 -0.84527,-0.7778 -1.5,-1.65625 l -6.375,-8.4375 10.71875,1.78125 c 1.16001,0.17996 1.88182,0.34106 2.1875,0.53125 0.56037,0.34866 0.57151,1.00579 0.0625,1.9375 -0.0317,0.0509 -0.15451,0.3444 -0.4375,0.875 l 0.625,0.40625 5.3125,-8.59375 -0.625,-0.375 c -0.47586,0.57546 -0.86709,0.95154 -1.21875,1.0625 -0.35172,0.11091 -1.0093,0.0793 -1.90625,-0.0312 l -19.3125,-2.96875 z m -282.687502,6.5 -18.40625,4.34375 c -0.978005,0.238 -1.696277,0.31157 -2.125,0.21875 -0.440047,-0.10924 -0.911905,-0.4463 -1.4375,-1.03125 l -0.59375,0.4375 3.625,5.25 0.59375,-0.4375 c -0.54793,-0.93411 -0.824765,-1.55203 -0.875,-1.90625 -0.05019,-0.35422 0.105077,-0.66471 0.5,-0.9375 0.329148,-0.22733 1.027178,-0.4682 2.09375,-0.71875 l 10.28125,-2.46875 -5.875,9.09375 c -0.627196,0.99228 -1.078769,1.57666 -1.375,1.78125 -0.543039,0.3751 -1.160699,0.15058 -1.8125,-0.6875 -0.03407,-0.0494 -0.219831,-0.31032 -0.59375,-0.78125 l -0.625,0.4375 5.71875,8.28125 0.65625,-0.40625 c -0.338252,-0.6657 -0.538324,-1.19572 -0.5,-1.5625 0.03838,-0.36679 0.291262,-0.94006 0.75,-1.71875 l 10.4375,-16.53125 -0.4375,-0.65625 z m 33.531252,37.375 -0.4375,0.59375 c 0.86801,0.74334 1.39283,1.32999 1.53125,1.78125 0.13843,0.45127 -0.0354,0.99849 -0.5,1.625 l -8.625,11.65625 c -0.46463,0.6265 -0.96874,0.9348 -1.46875,0.9375 -0.499975,0.003 -1.18637,-0.28312 -2.093752,-0.90625 l -0.46875,0.59375 8.437502,6.25 0.4375,-0.59375 c -0.81979,-0.70764 -1.27973,-1.31393 -1.40625,-1.78125 -0.15446,-0.46318 -0.0152,-0.98332 0.4375,-1.59375 l 8.65625,-11.6875 c 0.45273,-0.61043 0.90299,-0.90771 1.375,-0.90625 0.45595,-0.0104 1.16585,0.25689 2.125,0.84375 l 0.46875,-0.59375 -8.46875,-6.21875 z m 9.375,6.875 -0.4375,0.625 c 0.91699,0.68204 1.48718,1.24681 1.65625,1.6875 0.16908,0.4407 0.0455,0.99933 -0.375,1.65625 l -7.8125,12.21875 c -0.42054,0.65692 -0.90761,0.99424 -1.40625,1.03125 -0.49861,0.037 -1.20824,-0.22187 -2.15625,-0.78125 l -0.40625,0.625 8.84375,5.6875 0.375,-0.625 c -0.86644,-0.64969 -1.3417,-1.22997 -1.5,-1.6875 -0.1859,-0.45148 -0.0973,-0.98493 0.3125,-1.625 l 7.84375,-12.21875 c 0.40976,-0.64008 0.8415,-1.00031 1.3125,-1.03125 0.45416,-0.0417 1.19033,0.19912 2.1875,0.71875 l 0.40625,-0.625 -8.84375,-5.65625 z m 187.34375,3.1875 -0.65625,0.4375 3.625,18.53125 c 0.19871,0.98674 0.23489,1.70034 0.125,2.125 -0.12676,0.43533 -0.48824,0.90446 -1.09375,1.40625 l 0.40625,0.625 5.40625,-3.40625 -0.40625,-0.625 c -0.95525,0.51015 -1.61281,0.77649 -1.96875,0.8125 -0.35596,0.036 -0.64946,-0.15699 -0.90625,-0.5625 -0.21398,-0.33798 -0.44854,-1.04927 -0.65625,-2.125 l -2.0625,-10.375 8.875,6.25 c 0.96641,0.66636 1.5574,1.16458 1.75,1.46875 0.35307,0.5576 0.0822,1.13226 -0.78125,1.75 -0.0507,0.0321 -0.32699,0.23897 -0.8125,0.59375 l 0.40625,0.625 8.53125,-5.375 -0.40625,-0.65625 c -0.67871,0.31137 -1.19756,0.45922 -1.5625,0.40625 -0.36496,-0.053 -0.92777,-0.32301 -1.6875,-0.8125 l -16.125,-11.09375 z m -168.90625,7.09375 -14.0625,12.5625 c -0.74782,0.67373 -1.35984,1.06568 -1.78125,1.1875 -0.43916,0.11272 -1.00971,0.0466 -1.75,-0.21875 l -0.34375,0.6875 5.6875,2.875 0.34375,-0.65625 c -0.92567,-0.56207 -1.50639,-0.96205 -1.71875,-1.25 -0.21231,-0.28796 -0.2181,-0.66619 0,-1.09375 0.1818,-0.35632 0.71144,-0.89819 1.53125,-1.625 l 7.875,-7.0625 -0.875,10.78125 c -0.081,1.17107 -0.21138,1.92931 -0.375,2.25 -0.29991,0.58789 -0.93474,0.67825 -1.90625,0.25 -0.0534,-0.0273 -0.35358,-0.16922 -0.90625,-0.40625 l -0.34375,0.65625 9,4.625 0.3125,-0.6875 c -0.61373,-0.42537 -0.98464,-0.81525 -1.125,-1.15625 -0.14034,-0.34104 -0.19037,-0.9719 -0.15625,-1.875 l 1.3125,-19.46875 -0.71875,-0.375 z m 86.96875,18.5 -0.8125,0.0312 -5.84375,17.96875 c -0.3074,0.95847 -0.60333,1.62023 -0.90625,1.9375 -0.32287,0.31835 -0.88297,0.54444 -1.65625,0.6875 l 0.0312,0.75 6.375,-0.375 -0.0312,-0.75 c -1.08276,-0.0201 -1.76536,-0.0767 -2.09375,-0.21875 -0.32833,-0.14206 -0.53592,-0.45826 -0.5625,-0.9375 -0.0221,-0.39941 0.12584,-1.11568 0.46875,-2.15625 l 3.28125,-10.0625 4.6875,9.78125 c 0.51909,1.05285 0.79256,1.73428 0.8125,2.09375 0.0365,0.65898 -0.47618,1.0689 -1.53125,1.1875 -0.0599,0.003 -0.37188,0.0206 -0.96875,0.0937 l 0.0312,0.75 10.0625,-0.5625 -0.0625,-0.75 c -0.7444,-0.0589 -1.26964,-0.18214 -1.5625,-0.40625 -0.29286,-0.22414 -0.63768,-0.73356 -1.0625,-1.53125 l -8.65625,-17.53125 z m -21.9375,0.4375 -0.0312,0.75 c 1.13556,0.12851 1.88228,0.3603 2.25,0.65625 0.36773,0.29594 0.53327,0.84571 0.5,1.625 l -0.59375,14.5 c -0.0332,0.77927 -0.27507,1.27981 -0.6875,1.5625 -0.4124,0.28265 -1.14926,0.41316 -2.25,0.40625 l -0.0625,0.75 10.5,0.46875 0.0312,-0.75 c -1.0756,-0.12599 -1.82062,-0.34035 -2.1875,-0.65625 -0.38771,-0.29681 -0.5324,-0.8032 -0.5,-1.5625 l 0.59375,-14.53125 c 0.0324,-0.75932 0.26466,-1.26771 0.65625,-1.53125 0.3716,-0.26439 1.0955,-0.41658 2.21875,-0.46875 l 0.0625,-0.75 -10.5,-0.46875 z"
         style="font-size:24px;font-style:normal;font-variant:normal;font-weight:bold;font-stretch:normal;text-align:start;line-height:100%;text-anchor:start;fill:url(#linearGradient3071);fill-opacity:1;stroke:none;font-family:FreeSerif" />
    </g>
  </g>
</svg>
